<?xml version="1.0" standalone="no"?>
<!DOCTYPE svg PUBLIC "-//W3C//DTD SVG 20010904//EN"
 "http://www.w3.org/TR/2001/REC-SVG-20010904/DTD/svg10.dtd">
<svg version="1.0" xmlns="http://www.w3.org/2000/svg"
 width="512.000000pt" height="512.000000pt" viewBox="0 0 512.000000 512.000000"
 preserveAspectRatio="xMidYMid meet">
<metadata>
Created by potrace 1.14, written by Peter Selinger 2001-2017
</metadata>
<g transform="translate(0.000000,512.000000) scale(0.100000,-0.100000)"
fill="#000000" stroke="none">
<path d="M1111 4959 c-35 -10 -65 -19 -66 -21 -2 -2 9 -55 25 -118 45 -182
131 -515 134 -517 1 -2 36 7 78 18 l75 21 -64 251 c-36 139 -73 281 -82 316
-9 36 -20 65 -26 67 -5 1 -39 -7 -74 -17z"/>
<path d="M3472 4933 c-25 -24 -30 -41 -41 -123 -8 -52 -15 -104 -17 -115 -1
-11 -5 -42 -8 -70 -10 -84 -58 -125 -118 -100 -17 7 -66 63 -128 146 -100 134
-135 164 -175 152 -11 -3 -75 -46 -143 -97 l-123 -91 -162 -1 c-152 -1 -194
-4 -292 -24 -599 -118 -1072 -592 -1195 -1195 -8 -38 -23 -143 -29 -202 0 -7
-10 -13 -21 -13 -50 0 -77 -38 -94 -130 -12 -70 -38 -185 -42 -189 -2 -3 -32
15 -67 39 -170 119 -174 121 -211 115 -27 -6 -62 -35 -170 -145 -113 -114
-136 -143 -136 -167 0 -21 24 -65 80 -146 44 -64 80 -118 80 -121 0 -2 -17 -7
-37 -12 -21 -4 -40 -8 -43 -9 -3 0 -47 -9 -97 -19 -125 -25 -143 -41 -144
-133 -1 -191 3 -308 12 -325 13 -25 39 -34 183 -64 67 -14 122 -27 124 -29 2
-2 -32 -54 -74 -117 -113 -164 -115 -154 62 -328 171 -169 161 -167 315 -60
56 40 108 74 114 77 8 2 16 -18 24 -59 29 -149 51 -223 74 -240 19 -15 47 -18
208 -18 239 0 219 -15 264 195 14 65 28 121 30 123 2 2 53 -30 113 -71 61 -42
121 -79 135 -82 34 -9 61 7 132 78 l60 60 5 -149 c5 -133 9 -155 32 -204 26
-55 53 -89 101 -127 l25 -20 4 -259 c3 -251 4 -260 28 -309 31 -64 101 -134
165 -165 49 -24 55 -25 285 -25 l235 0 55 28 c66 34 129 98 161 164 23 46 24
58 27 307 l4 259 31 26 c53 45 69 64 96 121 25 53 26 62 28 260 2 113 8 229
14 258 23 113 89 200 217 287 37 25 85 61 107 80 l40 34 -27 27 -27 27 93 101
c103 113 176 221 245 367 l47 98 60 -80 c32 -44 68 -92 79 -106 48 -66 82 -93
112 -89 24 2 115 61 193 123 8 6 67 51 130 98 121 91 144 119 134 160 -3 13
-51 84 -105 157 -55 73 -102 143 -105 156 -9 33 14 79 45 90 19 7 75 3 191
-14 91 -13 176 -22 188 -19 27 5 62 40 63 64 0 9 2 25 4 36 3 11 9 54 15 96 6
41 12 86 15 98 2 13 7 49 11 80 3 31 8 65 10 76 28 141 5 176 -126 190 -36 4
-67 8 -70 10 -3 2 -34 6 -70 10 -114 11 -136 21 -153 62 -19 50 -11 69 54 121
71 57 72 58 156 120 40 29 75 62 78 72 18 57 26 43 -175 314 -116 156 -151
188 -197 180 -13 -3 -87 -52 -164 -110 -124 -92 -145 -104 -173 -100 -17 3
-42 17 -54 32 -20 23 -23 34 -17 73 3 25 8 62 11 81 2 19 7 50 10 69 6 40 16
109 17 131 5 60 -24 95 -88 104 -16 3 -66 10 -110 16 -44 6 -91 13 -105 15
-14 2 -47 7 -75 10 -27 4 -57 8 -65 10 -8 2 -41 7 -72 10 -54 6 -60 5 -86 -22z
m315 -925 c86 -40 171 -126 217 -219 41 -83 45 -98 51 -184 4 -72 -9 -141 -42
-215 l-25 -55 -27 105 c-34 131 -64 212 -115 315 -38 77 -120 209 -156 250
-35 41 -35 48 1 40 19 -4 62 -21 96 -37z m-2576 -1585 c74 -134 146 -237 219
-316 52 -57 52 -60 19 -111 -37 -60 -70 -89 -139 -123 -111 -56 -265 -28 -357
64 -63 63 -87 123 -87 223 -1 70 3 94 23 134 42 85 127 155 216 177 65 15 72
12 106 -48z"/>
<path d="M407 4490 c-54 -72 -54 -75 -5 -109 24 -17 52 -38 63 -46 11 -7 74
-52 140 -99 66 -47 129 -92 140 -100 129 -94 160 -116 165 -116 10 0 83 103
84 118 1 9 -112 96 -269 208 -148 106 -272 194 -275 194 -3 0 -23 -23 -43 -50z"/>
<path d="M540 3678 c-173 -44 -316 -80 -317 -82 -1 -1 2 -18 7 -37 5 -19 14
-53 19 -75 l11 -42 98 25 c53 14 104 26 112 28 35 7 425 107 427 109 3 2 -34
147 -39 150 -2 2 -145 -33 -318 -76z"/>
<path d="M4080 1920 l0 -80 280 0 280 0 0 80 0 80 -280 0 -280 0 0 -80z"/>
<path d="M4000 1519 c-28 -34 -48 -65 -43 -69 4 -4 89 -74 188 -156 99 -81
182 -151 185 -154 3 -3 26 -23 52 -43 l46 -38 52 62 c28 34 48 65 43 69 -4 4
-105 87 -223 185 -118 98 -222 185 -232 192 -14 13 -22 8 -68 -48z"/>
<path d="M3600 1080 l0 -280 80 0 80 0 0 280 0 280 -80 0 -80 0 0 -280z"/>
</g>
</svg>
